<?xml version="1.0" encoding="utf-8"?>
<!-- Generator: Adobe Illustrator 24.0.1, SVG Export Plug-In . SVG Version: 6.00 Build 0)  -->
<svg version="1.1" id="Layer_1" xmlns="http://www.w3.org/2000/svg" xmlns:xlink="http://www.w3.org/1999/xlink" x="0px" y="0px"
	 viewBox="0 0 107.9 65.8" style="enable-background:new 0 0 107.9 65.8;" xml:space="preserve">
<style type="text/css">
	.st0{fill:#FFFFFF;}
</style>
<g>
	<g>
		<path class="st0" d="M106.6,61.2C78.9,47.4,51.9,32.3,25.6,15.9C18.3,11.3,11,6.6,3.8,1.8C2.3,0.8-0.2,2.1,0,4
			c1.4,12.7,3.7,25.2,7,37.5c0.8,3.1,5.6,1.8,4.8-1.3C8.7,28.3,6.4,16.2,5,4C3.8,4.7,2.5,5.4,1.3,6.1c25.8,17.1,52.3,33,79.7,47.5
			c7.7,4.1,15.4,8,23.2,11.9C106.9,66.9,109.5,62.6,106.6,61.2L106.6,61.2z"/>
	</g>
</g>
<g>
	<g>
		<path class="st0" d="M2.8,6.4c12.3,0.5,24.6,0,36.9-1.4c1.3-0.2,2.5-1,2.5-2.5c0-1.2-1.1-2.7-2.5-2.5C27.4,1.4,15.1,1.8,2.8,1.4
			C-0.5,1.2-0.5,6.2,2.8,6.4L2.8,6.4z"/>
	</g>
</g>
</svg>
