<svg enable-background="new 0 0 107.9 65.8" viewBox="0 0 107.9 65.8" xmlns="http://www.w3.org/2000/svg"><g fill="#fff"><path d="m106.6 61.2c-27.7-13.8-54.7-28.9-81-45.3-7.3-4.6-14.6-9.3-21.8-14.1-1.5-1-4 .3-3.8 2.2 1.4 12.7 3.7 25.2 7 37.5.8 3.1 5.6 1.8 4.8-1.3-3.1-11.9-5.4-24-6.8-36.2-1.2.7-2.5 1.4-3.7 2.1 25.8 17.1 52.3 33 79.7 47.5 7.7 4.1 15.4 8 23.2 11.9 2.7 1.4 5.3-2.9 2.4-4.3z"/><path d="m2.8 6.4c12.3.5 24.6 0 36.9-1.4 1.3-.2 2.5-1 2.5-2.5 0-1.2-1.1-2.7-2.5-2.5-12.3 1.4-24.6 1.8-36.9 1.4-3.3-.2-3.3 4.8 0 5z"/></g></svg>