<?xml version="1.0" encoding="utf-8"?>
<!-- Generator: Adobe Illustrator 24.1.0, SVG Export Plug-In . SVG Version: 6.00 Build 0)  -->
<svg version="1.1" id="Layer_1" xmlns="http://www.w3.org/2000/svg" xmlns:xlink="http://www.w3.org/1999/xlink" x="0px" y="0px"
	 viewBox="0 0 50 50" style="enable-background:new 0 0 50 50;" xml:space="preserve">
<style type="text/css">
	.st0{fill:#666766;}
</style>
<path class="st0" d="M25,5c11,0,20,9,20,20s-9,20-20,20S5,36,5,25S14,5,25,5L25,5z M25,0C11.2,0,0,11.2,0,25c0,13.8,11.2,25,25,25
	c13.8,0,25-11.2,25-25C50,11.2,38.8,0,25,0L25,0z"/>
<path class="st0" d="M24.9,38.7c-2.1,0-3.5-1.6-3.5-3.7c0-2.2,1.5-3.7,3.6-3.7c2.1,0,3.5,1.5,3.6,3.7C28.6,37.2,27.2,38.7,24.9,38.7
	L24.9,38.7z M22.7,29.4l-0.9-18.2h6.3l-0.9,18.2H22.7z"/>
</svg>
